<svg id="Layer_1" data-name="Layer 1" xmlns="http://www.w3.org/2000/svg" xmlns:xlink="http://www.w3.org/1999/xlink" viewBox="0 0 354.38 239.82"><defs><style>.cls-1{stroke:#010101;stroke-miterlimit:10;stroke-width:6px;fill:url(#linear-gradient);}</style><linearGradient id="linear-gradient" x1="3" y1="644.84" x2="351.38" y2="644.84" gradientTransform="matrix(1, 0, 0, -1, 0, 764.75)" gradientUnits="userSpaceOnUse"><stop offset="0" stop-color="#f5bf48"/><stop offset="0.05" stop-color="#f2c252"/><stop offset="0.38" stop-color="#e1d396"/><stop offset="0.67" stop-color="#d5dfc8"/><stop offset="0.88" stop-color="#cde7e6"/><stop offset="1" stop-color="#caeaf2"/></linearGradient></defs><title>background_3.svg</title><g id="Layer_1-2" data-name="Layer 1-2"><path class="cls-1" d="M63.75,236.76a6.75,6.75,0,0,1-2.9-6.07V206.24q-.29-25.81-.63-51.67a13.27,13.27,0,0,0-3.76-9.29c-1.46-1.56-5.36-1.88-7.39-1.19-3.52,1.18-4.06,4.32-5.27,7-1.51,3.13-2.25,6.59-4.6,9.36a12.68,12.68,0,0,1-14.56,3.36,23.46,23.46,0,0,1-6.29-2.67,35.24,35.24,0,0,1-6.55-7,60.81,60.81,0,0,1-4.71-8.46,20,20,0,0,1-1.42-4.27A55.71,55.71,0,0,1,4,133.62a114.46,114.46,0,0,1-1-15.8,75.36,75.36,0,0,1,2.14-12.93,52.42,52.42,0,0,1,2.64-9.27c2.54-6.1,5.41-12.1,11.43-15.81A17,17,0,0,1,23,78.06c3.05-.92,6.13-2,9.39-1.3a12,12,0,0,1,8.79,6.32A75.55,75.55,0,0,1,45,92.46,7.44,7.44,0,0,0,56.76,96a9.84,9.84,0,0,0,3.39-8.11q0-36.88-.09-73.94a33.7,33.7,0,0,0,0-4,5.86,5.86,0,0,1,5.28-6.4,5,5,0,0,1,1,0c24.78,0,49.57-.11,74.35-.2,1.75,0,3.51-.14,5.26,0,7.66.67,13.88,3.74,17.2,11.09a17.78,17.78,0,0,1,.14,13.24,15.17,15.17,0,0,1-9.38,9.6c-2.63,1.07-5.27,2.3-7.85,3.39-2,.86-2.35,2-2,4.11.9,6,5.59,8.38,10.19,10.79s9.17,3,13.94,4a55.41,55.41,0,0,0,20,.52,33.65,33.65,0,0,0,15.19-5.4,29.52,29.52,0,0,0,6.06-4.9,13.39,13.39,0,0,0,2.23-6.15c.37-2.23-2-2.34-3.37-2.92-3.71-1.58-7.61-2.7-10.87-5.14A13.77,13.77,0,0,1,192,28.39a28.6,28.6,0,0,1-1.18-8c.11-5.85,3.15-10.1,8-13.22a27,27,0,0,1,15.31-3.95c23.43,0,47-.18,70.42-.18a27.38,27.38,0,0,1,4.53.16A4.86,4.86,0,0,1,293.53,8v2.23q0,37.17.12,74.32c0,4.17,1.08,8.21,4.76,10.94,2.2,1.64,8.29,1.34,10-2.42s2.9-7.39,4.76-10.89c3.14-5.9,8.29-7.79,14.44-6.48,3.51.76,7.13,1.76,9.83,4.43a41.28,41.28,0,0,1,8.36,12.05,52.06,52.06,0,0,1,4.87,17.8,4.85,4.85,0,0,0,.75,1.53V124a10.94,10.94,0,0,0-.81,2.08,100.24,100.24,0,0,1-1.75,11,54.94,54.94,0,0,1-6.69,15.37c-3.82,5.85-8.66,9.85-15.67,10.93-5.71.86-10.54-.81-13.52-6.42-1.76-3.28-3.15-6.7-4.59-10.13a7.32,7.32,0,0,0-8.78-3.77c-4.39,1.54-5.57,5.26-5.65,9-.21,7.92.31,15.81.37,23.78q.15,26.87.14,53.72c0,4.22-2.36,6.76-6.84,6.76l-74.92.16a25.44,25.44,0,0,1-13.06-3.32,16.74,16.74,0,0,1-8.89-14.86,32.94,32.94,0,0,1,.69-4.07,12.44,12.44,0,0,1,5.79-9.71c3.25-2.09,7-3.39,10.54-5.17,1.46-.73,3.72-.75,3.93-3a10,10,0,0,0-2.19-6.76c-2.37-3.32-6.08-4.8-9.59-6.43-6.2-2.88-13-3.51-19.67-4.5-3.69-.51-7.57.35-11.36.58a43.75,43.75,0,0,0-16.69,5.06,15.86,15.86,0,0,0-7.29,6.5c-.57,1.07-.47,2.51-1,3.61-.92,1.87.15,2.85,1.47,3.52,3.15,1.46,6.36,2.75,9.59,4a15.27,15.27,0,0,1,8.15,8,19,19,0,0,1,1.19,11,14.09,14.09,0,0,1-2.12,5.77c-4.39,6.91-11.4,9.28-19,9.56-11.37.38-22.83.21-34.14.28-.79,0-1.59.16-2.39.23Z"/></g></svg>