<svg xmlns="http://www.w3.org/2000/svg" xmlns:xlink="http://www.w3.org/1999/xlink" viewBox="0 0 204.47 139.09"><defs><style>.cls-1{stroke:#000;stroke-miterlimit:10;stroke-width:6px;fill:url(#radial-gradient);}</style><radialGradient id="radial-gradient" cx="47.92" cy="19.77" r="147.34" gradientUnits="userSpaceOnUse"><stop offset="0.31" stop-color="#caeaf2"/><stop offset="1" stop-color="#f6c047"/></radialGradient></defs><title>background_2</title><g id="Layer_2" data-name="Layer 2"><g id="Layer_1-2" data-name="Layer 1"><path class="cls-1" d="M37.65,136.09A3.85,3.85,0,0,1,36,132.63c0-4.64,0-9.28,0-13.92q-.16-14.7-.36-29.42A7.55,7.55,0,0,0,33.5,84c-.83-.89-3.05-1.07-4.21-.68-2,.67-2.31,2.46-3,4-.86,1.78-1.28,3.75-2.62,5.33a7.22,7.22,0,0,1-8.29,1.91,13.37,13.37,0,0,1-3.58-1.52,20.19,20.19,0,0,1-3.73-4,34.73,34.73,0,0,1-2.68-4.82,11.19,11.19,0,0,1-.81-2.43,32,32,0,0,1-.93-4.43,65.92,65.92,0,0,1-.59-9A42.6,42.6,0,0,1,4.28,61a29.79,29.79,0,0,1,1.5-5.28c1.45-3.47,3.08-6.89,6.51-9a9.88,9.88,0,0,1,2.18-1c1.74-.52,3.49-1.11,5.35-.74a6.84,6.84,0,0,1,5,3.6A43.14,43.14,0,0,1,27,53.92a4.23,4.23,0,0,0,6.67,2A5.59,5.59,0,0,0,35.6,51.3q0-21-.05-42.1a19.42,19.42,0,0,0,0-2.29,3.34,3.34,0,0,1,3.59-3.65c14.11,0,28.22-.06,42.33-.11,1,0,2-.08,3,0,4.36.38,7.9,2.13,9.79,6.31A10.1,10.1,0,0,1,94.34,17,8.64,8.64,0,0,1,89,22.47c-1.5.61-3,1.31-4.47,1.93-1.16.49-1.34,1.14-1.16,2.34.51,3.44,3.18,4.77,5.8,6.14s5.22,1.71,7.94,2.29a31.54,31.54,0,0,0,11.37.3,19.16,19.16,0,0,0,8.65-3.08,16.86,16.86,0,0,0,3.45-2.79,7.62,7.62,0,0,0,1.27-3.5c.21-1.27-1.16-1.33-1.92-1.66-2.11-.9-4.33-1.54-6.19-2.93a7.79,7.79,0,0,1-3.09-4.07,16.08,16.08,0,0,1-.67-4.56c.06-3.33,1.79-5.75,4.55-7.53a15.44,15.44,0,0,1,8.72-2.25C136.59,3.11,150,3,163.35,3a15.86,15.86,0,0,1,2.58.09,2.77,2.77,0,0,1,2.56,2.74c0,.42,0,.85,0,1.27,0,14.11,0,28.22.07,42.32,0,2.37.61,4.67,2.71,6.23,1.25.93,4.72.76,5.67-1.38s1.65-4.21,2.71-6.2c1.79-3.36,4.72-4.44,8.22-3.69,2,.43,4.06,1,5.6,2.52a23.57,23.57,0,0,1,4.76,6.86A29.62,29.62,0,0,1,201,63.9a2.82,2.82,0,0,0,.43.87V71.9a5.88,5.88,0,0,0-.46,1.18,56.68,56.68,0,0,1-1,6.28,31.06,31.06,0,0,1-3.81,8.75c-2.17,3.33-4.93,5.61-8.92,6.22-3.25.49-6-.46-7.7-3.65-1-1.87-1.79-3.82-2.61-5.77a4.17,4.17,0,0,0-5-2.15c-2.5.88-3.17,3-3.22,5.11-.12,4.51.18,9,.21,13.54q.09,15.3.08,30.59c0,2.4-1.34,3.85-3.89,3.85l-42.66.09a14.52,14.52,0,0,1-7.44-1.89,9.53,9.53,0,0,1-5.06-8.46,19,19,0,0,1,.39-2.32,7.09,7.09,0,0,1,3.3-5.53c1.85-1.19,4-1.93,6-2.94.83-.42,2.12-.43,2.24-1.69a5.75,5.75,0,0,0-1.25-3.85c-1.35-1.89-3.46-2.73-5.46-3.66-3.53-1.64-7.41-2-11.2-2.56-2.1-.29-4.31.2-6.47.33A24.81,24.81,0,0,0,88,106.25a9,9,0,0,0-4.15,3.7c-.33.61-.27,1.43-.58,2.06-.52,1.06.09,1.62.84,2,1.79.83,3.62,1.57,5.46,2.29a8.68,8.68,0,0,1,4.64,4.53,10.8,10.8,0,0,1,.68,6.27,8.09,8.09,0,0,1-1.21,3.29c-2.5,3.93-6.49,5.28-10.82,5.44-6.47.22-13,.12-19.44.16-.45,0-.9.09-1.36.13Z"/></g></g></svg>