<svg id="Layer_1" data-name="Layer 1" xmlns="http://www.w3.org/2000/svg" viewBox="0 0 124 150"><defs><style>.cls-1{fill:#ee2f2a;}.cls-2{fill:#f7e0ed;stroke:#231f20;stroke-miterlimit:10;}</style></defs><title>Location Icon</title><path class="cls-1" d="M58.87,141.8,90.31,58.46A30,30,0,0,0,87,30.59a34.44,34.44,0,0,0-56.29,0,30,30,0,0,0-3.28,27.86Z"/><path class="cls-2" d="M66.69,67.72c-1.17,1.32-1.44,3-2,4.61-.24.7-.52,1.39-.8,2.08-.1.27-.22.43-.59.29-3.55-1.4-7.13-2.74-10.67-4.17a3.91,3.91,0,0,1-2.29-3.82,2.23,2.23,0,0,1,2.36-2c.54,0,1.08,0,1.62.09a1.88,1.88,0,0,0,2-2.6,7.1,7.1,0,0,0-1.89-2.93,9.86,9.86,0,0,0-5.28-3,6,6,0,0,0-1.84,0,1.59,1.59,0,0,0-1.26,2.36c.48,1,1,2,1.46,2.95a1.93,1.93,0,0,1-.25,2.18,2.28,2.28,0,0,1-2.47,1,7.8,7.8,0,0,1-3.47-1.91c-2.52-2.35-5-4.79-7.44-7.18-.3-.29-.25-.46,0-.69.74-.6,1.43-1.25,2.17-1.82A14,14,0,0,0,39.45,49c.55-.92,1.1-1.84,1.59-2.79a6.4,6.4,0,0,0,.56-1.61,2.08,2.08,0,0,0-2.33-2.34,8.4,8.4,0,0,0-1.92.51c-.38.11-.74.3-1.12.44a2.29,2.29,0,0,1-3-1,3.77,3.77,0,0,1-.4-2.74,10,10,0,0,1,5.89-7.75,2.85,2.85,0,0,1,3.45.62,3.46,3.46,0,0,1,.67,1.39c.17.66.17,1.36.33,2a4.2,4.2,0,0,0,.59,1.43,2,2,0,0,0,2.39.71,5.31,5.31,0,0,0,3.49-2.77A31.16,31.16,0,0,0,51.26,32,18.62,18.62,0,0,0,52,28.79a19.28,19.28,0,0,0,.22-2.4c0-.43.21-.48.57-.34q5.41,2.09,10.84,4.12a5.52,5.52,0,0,1,2.81,2c1.06,1.58.73,3.59-1.58,4.16a10.91,10.91,0,0,1-2.22.15c-.6,0-1.2,0-1.81,0-1.3,0-1.79,1-1.63,2.17a5.68,5.68,0,0,0,1.71,3,10.13,10.13,0,0,0,4.86,3.11,11.81,11.81,0,0,0,2,.26,2.34,2.34,0,0,0,1.79-.73A2,2,0,0,0,70.1,42c-.25-.72-.55-1.41-.8-2.13a2.82,2.82,0,0,1,4.25-3.38,15.79,15.79,0,0,1,2.27,2q3.3,3.45,6.54,7c.78.85.88.73-.14,1.64S80,48.86,78.93,49.83A17.37,17.37,0,0,0,75,54.55a21.84,21.84,0,0,0-1,2.38,1.1,1.1,0,0,0,.26,1.29,6.67,6.67,0,0,0,1.3,1.08,1.94,1.94,0,0,0,2,0c.44-.25.9-.47,1.36-.69a2.37,2.37,0,0,1,3.27.78,3.55,3.55,0,0,1,.49,2.93,9.55,9.55,0,0,1-3.13,5.55,6.4,6.4,0,0,1-3.43,1.91,2.48,2.48,0,0,1-2.9-2.2,18,18,0,0,0-.09-1.81,3.24,3.24,0,0,0-.55-1.44,1.75,1.75,0,0,0-2.94-.14c-1.07,1.09-2,2.29-3,3.44ZM34.15,55.26c.09.11.14.2.2.26,2.46,2.37,4.89,4.77,7.39,7.11a7.2,7.2,0,0,0,3.07,1.67,1.84,1.84,0,0,0,1.94-.54,1.74,1.74,0,0,0,.41-2.12c-.47-1-1-1.93-1.45-2.9a2,2,0,0,1,1.49-2.86,6,6,0,0,1,1.93,0,9.79,9.79,0,0,1,5.25,2.78,8.29,8.29,0,0,1,2.34,3.46,2.24,2.24,0,0,1-2.38,3.08c-.53,0-1.05-.09-1.58-.1a1.85,1.85,0,0,0-2,2,3.74,3.74,0,0,0,2.45,3.25l8.48,3.28,1.93.73c.48-1.5.87-2.95,1.41-4.35a16.37,16.37,0,0,1,4.85-6.52,1.73,1.73,0,0,1,2-.21,2.78,2.78,0,0,1,1.59,2.45c0,.58,0,1.15.07,1.72a1.91,1.91,0,0,0,1.29,1.76,2.81,2.81,0,0,0,2.61-.33A9.77,9.77,0,0,0,81.79,64a6,6,0,0,0,.45-3.58,2.17,2.17,0,0,0-3-1.52,11,11,0,0,0-1.23.64,2.79,2.79,0,0,1-2.54.22,4,4,0,0,1-1.57-1.27,1.59,1.59,0,0,1-.31-1.61,13.93,13.93,0,0,1,2.12-4.15,29.72,29.72,0,0,1,4.52-4.52l2.33-1.93c-.18-.22-.28-.39-.42-.53C80.05,43.48,78,41.24,75.86,39c-.61-.65-1.28-1.25-2-1.86a2.8,2.8,0,0,0-3.38-.43,2.52,2.52,0,0,0-.81,3.15c.22.62.45,1.22.7,1.82A2.7,2.7,0,0,1,68,45.41a8.29,8.29,0,0,1-1.57-.1,9.42,9.42,0,0,1-5-2.68,15.35,15.35,0,0,1-2-2.43,3.05,3.05,0,0,1-.46-2.74,1.72,1.72,0,0,1,1.67-1.36c.68,0,1.36,0,2,0A10.47,10.47,0,0,0,64.82,36a2.1,2.1,0,0,0,1.47-3.31,4,4,0,0,0-2.17-1.86c-2.48-1-5-1.9-7.45-2.84l-4-1.52c0,.26-.06.49-.08.71a14.17,14.17,0,0,1-1.7,6.63c-.59,1-1.16,1.94-1.79,2.87a5.19,5.19,0,0,1-2.67,1.59A2.53,2.53,0,0,1,43,36.57a17.25,17.25,0,0,1-.4-2.28,2.79,2.79,0,0,0-.71-1.72,2.51,2.51,0,0,0-2.95-.5,9.56,9.56,0,0,0-5.69,7.41,3.15,3.15,0,0,0,.61,2.88,1.8,1.8,0,0,0,2.05.58c.45-.16.89-.38,1.34-.52a9.6,9.6,0,0,1,1.92-.52A2.49,2.49,0,0,1,42,44.72a6.06,6.06,0,0,1-.54,1.62c-.52,1-1.09,2-1.68,2.95a14.78,14.78,0,0,1-3.3,4C35.67,53.94,34.94,54.6,34.15,55.26Z"/><path class="cls-2" d="M34.15,55.26c.79-.66,1.52-1.32,2.3-1.93a14.78,14.78,0,0,0,3.3-4c.59-1,1.16-1.95,1.68-2.95A6.06,6.06,0,0,0,42,44.72a2.49,2.49,0,0,0-2.79-2.82,9.6,9.6,0,0,0-1.92.52c-.45.14-.89.36-1.34.52a1.8,1.8,0,0,1-2.05-.58,3.15,3.15,0,0,1-.61-2.88A9.56,9.56,0,0,1,39,32.07a2.51,2.51,0,0,1,2.95.5,2.79,2.79,0,0,1,.71,1.72,17.25,17.25,0,0,0,.4,2.28,2.53,2.53,0,0,0,3.4,1.66,5.19,5.19,0,0,0,2.67-1.59c.63-.93,1.2-1.91,1.79-2.87a14.17,14.17,0,0,0,1.7-6.63c0-.22,0-.45.08-.71l4,1.52c2.48.94,5,1.87,7.45,2.84a4,4,0,0,1,2.17,1.86A2.1,2.1,0,0,1,64.82,36a10.47,10.47,0,0,1-2.17.15c-.68,0-1.36,0-2,0a1.72,1.72,0,0,0-1.67,1.36,3.05,3.05,0,0,0,.46,2.74,15.35,15.35,0,0,0,2,2.43,9.42,9.42,0,0,0,5,2.68,8.29,8.29,0,0,0,1.57.1,2.7,2.7,0,0,0,2.43-3.71c-.25-.6-.48-1.2-.7-1.82a2.52,2.52,0,0,1,.81-3.15,2.8,2.8,0,0,1,3.38.43c.67.61,1.34,1.21,2,1.86,2.11,2.22,4.19,4.46,6.28,6.7.14.14.24.31.42.53l-2.33,1.93a29.72,29.72,0,0,0-4.52,4.52,13.93,13.93,0,0,0-2.12,4.15,1.59,1.59,0,0,0,.31,1.61,4,4,0,0,0,1.57,1.27A2.79,2.79,0,0,0,78,59.51a11,11,0,0,1,1.23-.64,2.17,2.17,0,0,1,3,1.52A6,6,0,0,1,81.79,64a9.77,9.77,0,0,1-4.32,4.93,2.81,2.81,0,0,1-2.61.33,1.91,1.91,0,0,1-1.29-1.76c0-.57,0-1.14-.07-1.72a2.78,2.78,0,0,0-1.59-2.45,1.73,1.73,0,0,0-2,.21A16.37,16.37,0,0,0,65,70c-.54,1.4-.93,2.85-1.41,4.35l-1.93-.73-8.48-3.28a3.74,3.74,0,0,1-2.45-3.25,1.85,1.85,0,0,1,2-2c.53,0,1.05.07,1.58.1a2.24,2.24,0,0,0,2.38-3.08,8.29,8.29,0,0,0-2.34-3.46,9.79,9.79,0,0,0-5.25-2.78,6,6,0,0,0-1.93,0,2,2,0,0,0-1.49,2.86c.47,1,1,1.93,1.45,2.9a1.74,1.74,0,0,1-.41,2.12,1.84,1.84,0,0,1-1.94.54,7.2,7.2,0,0,1-3.07-1.67c-2.5-2.34-4.93-4.74-7.39-7.11C34.29,55.46,34.24,55.37,34.15,55.26Z"/></svg>